<svg width="220" height="78" viewBox="0 0 220 78" fill="none" xmlns="http://www.w3.org/2000/svg">
<rect width="78" height="78" fill="#FF4B4B"/>
<path d="M62.9854 23.0103H46.9954V39.0003H31.0054V54.9903H15.0154" stroke="white" stroke-width="7.82301"/>
<path d="M106.706 35.9597H102.609L94.6313 22.8966V35.9597H90.5334V16.106H94.6313L102.622 29.1964V16.106H106.706V35.9597Z" fill="white"/>
<path d="M116.828 36.2324C114.661 36.2324 112.894 35.5688 111.528 34.2416C110.171 32.9144 109.493 31.1463 109.493 28.9373V28.5555C109.493 27.0737 109.78 25.751 110.354 24.5875C110.927 23.4148 111.738 22.5148 112.785 21.8876C113.841 21.2512 115.043 20.9331 116.391 20.9331C118.413 20.9331 120.002 21.5694 121.158 22.8421C122.324 24.1147 122.907 25.9192 122.907 28.2555V29.8645H113.495C113.623 30.8281 114.005 31.6008 114.643 32.1826C115.289 32.7644 116.104 33.0553 117.088 33.0553C118.609 33.0553 119.797 32.5053 120.653 31.4053L122.593 33.5734C122.001 34.4098 121.199 35.0643 120.189 35.537C119.178 36.0006 118.058 36.2324 116.828 36.2324ZM116.378 24.1238C115.594 24.1238 114.957 24.3875 114.465 24.9147C113.983 25.442 113.673 26.1965 113.536 27.1783H119.028V26.8646C119.009 25.9919 118.773 25.3192 118.317 24.8465C117.862 24.3647 117.215 24.1238 116.378 24.1238Z" fill="white"/>
<path d="M130.788 25.6101L133.275 21.2058H137.495L133.288 28.4327L137.673 35.9597H133.438L130.802 31.3235L128.179 35.9597H123.931L128.316 28.4327L124.123 21.2058H128.357L130.788 25.6101Z" fill="white"/>
<path d="M144.12 17.5787V21.2058H146.647V24.0966H144.12V31.4599C144.12 32.0053 144.225 32.3962 144.434 32.6326C144.644 32.8689 145.045 32.9871 145.637 32.9871C146.074 32.9871 146.461 32.9553 146.798 32.8916V35.8779C146.024 36.1142 145.227 36.2324 144.407 36.2324C141.639 36.2324 140.227 34.837 140.173 32.0462V24.0966H138.014V21.2058H140.173V17.5787H144.12Z" fill="white"/>
<path d="M160.17 32.6735H168.872V35.9597H156.073V16.106H160.17V32.6735Z" fill="white"/>
<path d="M177.778 36.2324C175.61 36.2324 173.844 35.5688 172.478 34.2416C171.121 32.9144 170.442 31.1463 170.442 28.9373V28.5555C170.442 27.0737 170.729 25.751 171.303 24.5875C171.877 23.4148 172.687 22.5148 173.734 21.8876C174.791 21.2512 175.993 20.9331 177.341 20.9331C179.362 20.9331 180.951 21.5694 182.108 22.8421C183.273 24.1147 183.856 25.9192 183.856 28.2555V29.8645H174.445C174.572 30.8281 174.955 31.6008 175.592 32.1826C176.239 32.7644 177.054 33.0553 178.037 33.0553C179.558 33.0553 180.746 32.5053 181.602 31.4053L183.542 33.5734C182.95 34.4098 182.149 35.0643 181.138 35.537C180.127 36.0006 179.007 36.2324 177.778 36.2324ZM177.327 24.1238C176.544 24.1238 175.906 24.3875 175.415 24.9147C174.932 25.442 174.622 26.1965 174.486 27.1783H179.977V26.8646C179.959 25.9919 179.722 25.3192 179.267 24.8465C178.811 24.3647 178.165 24.1238 177.327 24.1238Z" fill="white"/>
<path d="M191.451 31.1463L194.197 21.2058H198.322L193.336 35.9597H189.566L184.58 21.2058H188.705L191.451 31.1463Z" fill="white"/>
<path d="M206.682 36.2324C204.514 36.2324 202.748 35.5688 201.382 34.2416C200.025 32.9144 199.346 31.1463 199.346 28.9373V28.5555C199.346 27.0737 199.633 25.751 200.207 24.5875C200.781 23.4148 201.591 22.5148 202.638 21.8876C203.695 21.2512 204.897 20.9331 206.244 20.9331C208.266 20.9331 209.855 21.5694 211.012 22.8421C212.177 24.1147 212.76 25.9192 212.76 28.2555V29.8645H203.349C203.476 30.8281 203.859 31.6008 204.496 32.1826C205.143 32.7644 205.958 33.0553 206.941 33.0553C208.462 33.0553 209.65 32.5053 210.506 31.4053L212.446 33.5734C211.854 34.4098 211.053 35.0643 210.042 35.537C209.031 36.0006 207.911 36.2324 206.682 36.2324ZM206.231 24.1238C205.448 24.1238 204.81 24.3875 204.318 24.9147C203.836 25.442 203.526 26.1965 203.39 27.1783H208.881V26.8646C208.863 25.9919 208.626 25.3192 208.171 24.8465C207.715 24.3647 207.069 24.1238 206.231 24.1238Z" fill="white"/>
<path d="M219.18 35.9597H215.219V15.0151H219.18V35.9597Z" fill="white"/>
<path d="M100.846 57.5035C100.846 56.7309 100.573 56.14 100.027 55.7309C99.4805 55.3127 98.497 54.8764 97.0764 54.4219C95.6558 53.9582 94.5312 53.5037 93.7025 53.0583C91.4441 51.8401 90.3149 50.1993 90.3149 48.1358C90.3149 47.0631 90.6154 46.1086 91.2164 45.2722C91.8266 44.4268 92.6962 43.7678 93.8254 43.2951C94.9637 42.8224 96.2386 42.586 97.6501 42.586C99.0707 42.586 100.337 42.8451 101.448 43.3632C102.558 43.8723 103.419 44.595 104.029 45.5313C104.648 46.4677 104.958 47.5312 104.958 48.7221H100.86C100.86 47.813 100.573 47.1085 99.9996 46.6086C99.4259 46.0995 98.62 45.845 97.5818 45.845C96.5801 45.845 95.8015 46.0586 95.246 46.4858C94.6905 46.904 94.4128 47.4585 94.4128 48.1494C94.4128 48.7948 94.7361 49.3357 95.3826 49.7721C96.0383 50.2084 96.999 50.6175 98.2648 50.9993C100.596 51.6992 102.294 52.5674 103.36 53.6037C104.425 54.64 104.958 55.9309 104.958 57.4763C104.958 59.1944 104.307 60.5443 103.005 61.5261C101.702 62.4988 99.9495 62.9851 97.7457 62.9851C96.2159 62.9851 94.8226 62.7079 93.5659 62.1533C92.3092 61.5897 91.3485 60.8216 90.6837 59.8489C90.028 58.8762 89.7002 57.749 89.7002 56.4672H93.8118C93.8118 58.658 95.1231 59.7534 97.7457 59.7534C98.7201 59.7534 99.4805 59.558 100.027 59.1671C100.573 58.7671 100.846 58.2126 100.846 57.5035Z" fill="white"/>
<path d="M116.337 61.2125C115.362 62.3942 114.014 62.9851 112.293 62.9851C110.709 62.9851 109.498 62.5306 108.66 61.6216C107.831 60.7125 107.408 59.3807 107.389 57.6263V47.9585H111.337V57.4899C111.337 59.0262 112.038 59.7944 113.441 59.7944C114.779 59.7944 115.699 59.3307 116.2 58.4035V47.9585H120.161V62.7124H116.446L116.337 61.2125Z" fill="white"/>
<path d="M129.286 59.808C130.014 59.808 130.606 59.608 131.062 59.208C131.517 58.808 131.754 58.2762 131.772 57.6126H135.474C135.465 58.6126 135.191 59.5307 134.654 60.3671C134.117 61.1943 133.379 61.8397 132.441 62.3033C131.512 62.7579 130.483 62.9851 129.354 62.9851C127.242 62.9851 125.575 62.317 124.355 60.9807C123.135 59.6353 122.524 57.7808 122.524 55.4173V55.1582C122.524 52.8856 123.13 51.072 124.341 49.7175C125.552 48.363 127.214 47.6858 129.327 47.6858C131.176 47.6858 132.655 48.213 133.766 49.2675C134.886 50.3129 135.456 51.7083 135.474 53.4537H131.772C131.754 52.6901 131.517 52.072 131.062 51.5993C130.606 51.1175 130.005 50.8766 129.259 50.8766C128.339 50.8766 127.642 51.2129 127.169 51.8856C126.704 52.5492 126.472 53.631 126.472 55.1309V55.54C126.472 57.0581 126.704 58.149 127.169 58.8126C127.633 59.4762 128.339 59.808 129.286 59.808Z" fill="white"/>
<path d="M143.874 59.808C144.603 59.808 145.195 59.608 145.65 59.208C146.106 58.808 146.342 58.2762 146.361 57.6126H150.062C150.053 58.6126 149.78 59.5307 149.243 60.3671C148.705 61.1943 147.968 61.8397 147.03 62.3033C146.101 62.7579 145.072 62.9851 143.943 62.9851C141.83 62.9851 140.164 62.317 138.943 60.9807C137.723 59.6353 137.113 57.7808 137.113 55.4173V55.1582C137.113 52.8856 137.718 51.072 138.93 49.7175C140.141 48.363 141.803 47.6858 143.915 47.6858C145.764 47.6858 147.244 48.213 148.355 49.2675C149.475 50.3129 150.044 51.7083 150.062 53.4537H146.361C146.342 52.6901 146.106 52.072 145.65 51.5993C145.195 51.1175 144.594 50.8766 143.847 50.8766C142.927 50.8766 142.231 51.2129 141.757 51.8856C141.293 52.5492 141.061 53.631 141.061 55.1309V55.54C141.061 57.0581 141.293 58.149 141.757 58.8126C142.222 59.4762 142.927 59.808 143.874 59.808Z" fill="white"/>
<path d="M159.119 62.9851C156.951 62.9851 155.185 62.3215 153.819 60.9943C152.462 59.6671 151.783 57.899 151.783 55.69V55.3082C151.783 53.8264 152.07 52.5038 152.644 51.3402C153.218 50.1675 154.028 49.2675 155.075 48.6403C156.132 48.004 157.334 47.6858 158.682 47.6858C160.703 47.6858 162.292 48.3221 163.449 49.5948C164.614 50.8675 165.197 52.6719 165.197 55.0082V56.6172H155.786C155.913 57.5808 156.296 58.3535 156.933 58.9353C157.58 59.5171 158.395 59.808 159.378 59.808C160.899 59.808 162.087 59.258 162.943 58.1581L164.883 60.3262C164.291 61.1625 163.49 61.817 162.479 62.2897C161.468 62.7533 160.348 62.9851 159.119 62.9851ZM158.668 50.8766C157.885 50.8766 157.247 51.1402 156.756 51.6674C156.273 52.1947 155.963 52.9492 155.827 53.931H161.318V53.6173C161.3 52.7447 161.063 52.072 160.608 51.5993C160.152 51.1175 159.506 50.8766 158.668 50.8766Z" fill="white"/>
<path d="M175.456 58.6353C175.456 58.1535 175.214 57.7763 174.732 57.5035C174.258 57.2217 173.493 56.9717 172.437 56.7536C168.922 56.0172 167.164 54.5264 167.164 52.281C167.164 50.972 167.706 49.8811 168.79 49.0085C169.882 48.1267 171.308 47.6858 173.065 47.6858C174.941 47.6858 176.439 48.1267 177.559 49.0085C178.688 49.8902 179.253 51.0356 179.253 52.4447H175.305C175.305 51.8811 175.123 51.4174 174.759 51.0538C174.395 50.6811 173.826 50.4948 173.051 50.4948C172.387 50.4948 171.872 50.6447 171.508 50.9447C171.144 51.2447 170.962 51.6265 170.962 52.0901C170.962 52.5265 171.166 52.881 171.576 53.1537C171.995 53.4174 172.696 53.6492 173.68 53.8492C174.663 54.0401 175.492 54.2582 176.166 54.5037C178.251 55.2673 179.294 56.5899 179.294 58.4717C179.294 59.8171 178.716 60.9079 177.559 61.7443C176.403 62.5715 174.909 62.9851 173.079 62.9851C171.84 62.9851 170.738 62.767 169.773 62.3306C168.817 61.8852 168.066 61.2807 167.519 60.5171C166.973 59.7444 166.7 58.9126 166.7 58.0217H170.442C170.479 58.7217 170.738 59.258 171.221 59.6307C171.704 60.0034 172.35 60.1898 173.161 60.1898C173.917 60.1898 174.486 60.0489 174.868 59.7671C175.26 59.4762 175.456 59.0989 175.456 58.6353Z" fill="white"/>
<path d="M189.853 58.6353C189.853 58.1535 189.612 57.7763 189.129 57.5035C188.655 57.2217 187.89 56.9717 186.834 56.7536C183.319 56.0172 181.561 54.5264 181.561 52.281C181.561 50.972 182.103 49.8811 183.187 49.0085C184.28 48.1267 185.705 47.6858 187.462 47.6858C189.338 47.6858 190.836 48.1267 191.956 49.0085C193.086 49.8902 193.65 51.0356 193.65 52.4447H189.703C189.703 51.8811 189.521 51.4174 189.156 51.0538C188.792 50.6811 188.223 50.4948 187.449 50.4948C186.784 50.4948 186.27 50.6447 185.905 50.9447C185.541 51.2447 185.359 51.6265 185.359 52.0901C185.359 52.5265 185.564 52.881 185.974 53.1537C186.392 53.4174 187.094 53.6492 188.077 53.8492C189.061 54.0401 189.889 54.2582 190.563 54.5037C192.649 55.2673 193.691 56.5899 193.691 58.4717C193.691 59.8171 193.113 60.9079 191.956 61.7443C190.8 62.5715 189.306 62.9851 187.476 62.9851C186.238 62.9851 185.136 62.767 184.17 62.3306C183.214 61.8852 182.463 61.2807 181.917 60.5171C181.37 59.7444 181.097 58.9126 181.097 58.0217H184.84C184.876 58.7217 185.136 59.258 185.618 59.6307C186.101 60.0034 186.748 60.1898 187.558 60.1898C188.314 60.1898 188.883 60.0489 189.266 59.7671C189.657 59.4762 189.853 59.0989 189.853 58.6353Z" fill="white"/>
</svg>
