<svg width="220" height="78" viewBox="0 0 220 78" fill="none" xmlns="http://www.w3.org/2000/svg">
<rect width="78" height="78" fill="white"/>
<path d="M62.9854 23.01H46.9954V39H31.0054V54.99H15.0154" stroke="#FF4B4B" stroke-width="7.82301"/>
<path d="M106.706 35.9595H102.609L94.6313 22.8964V35.9595H90.5334V16.1058H94.6313L102.622 29.1962V16.1058H106.706V35.9595Z" fill="white"/>
<path d="M116.828 36.2322C114.661 36.2322 112.894 35.5686 111.528 34.2414C110.171 32.9142 109.493 31.1461 109.493 28.9371V28.5553C109.493 27.0735 109.78 25.7509 110.354 24.5873C110.927 23.4146 111.738 22.5146 112.785 21.8874C113.841 21.2511 115.043 20.9329 116.391 20.9329C118.413 20.9329 120.002 21.5692 121.158 22.8419C122.324 24.1146 122.907 25.919 122.907 28.2553V29.8643H113.495C113.623 30.8279 114.005 31.6006 114.643 32.1824C115.289 32.7642 116.104 33.0551 117.088 33.0551C118.609 33.0551 119.797 32.5051 120.653 31.4052L122.593 33.5733C122.001 34.4096 121.199 35.0641 120.189 35.5368C119.178 36.0004 118.058 36.2322 116.828 36.2322ZM116.378 24.1237C115.594 24.1237 114.957 24.3873 114.465 24.9145C113.983 25.4418 113.673 26.1963 113.536 27.1781H119.028V26.8644C119.009 25.9918 118.773 25.3191 118.317 24.8464C117.862 24.3646 117.215 24.1237 116.378 24.1237Z" fill="white"/>
<path d="M130.788 25.61L133.275 21.2056H137.495L133.288 28.4326L137.673 35.9595H133.438L130.802 31.3233L128.179 35.9595H123.931L128.316 28.4326L124.123 21.2056H128.357L130.788 25.61Z" fill="white"/>
<path d="M144.12 17.5785V21.2056H146.647V24.0964H144.12V31.4597C144.12 32.0051 144.225 32.396 144.434 32.6324C144.644 32.8687 145.045 32.9869 145.637 32.9869C146.074 32.9869 146.461 32.9551 146.798 32.8915V35.8777C146.024 36.1141 145.227 36.2322 144.407 36.2322C141.639 36.2322 140.227 34.8368 140.173 32.046V24.0964H138.014V21.2056H140.173V17.5785H144.12Z" fill="white"/>
<path d="M160.17 32.6733H168.872V35.9595H156.073V16.1058H160.17V32.6733Z" fill="white"/>
<path d="M177.778 36.2322C175.61 36.2322 173.844 35.5686 172.478 34.2414C171.121 32.9142 170.442 31.1461 170.442 28.9371V28.5553C170.442 27.0735 170.729 25.7509 171.303 24.5873C171.877 23.4146 172.687 22.5146 173.734 21.8874C174.791 21.2511 175.993 20.9329 177.341 20.9329C179.362 20.9329 180.951 21.5692 182.108 22.8419C183.273 24.1146 183.856 25.919 183.856 28.2553V29.8643H174.445C174.572 30.8279 174.955 31.6006 175.592 32.1824C176.239 32.7642 177.054 33.0551 178.037 33.0551C179.558 33.0551 180.746 32.5051 181.602 31.4052L183.542 33.5733C182.95 34.4096 182.149 35.0641 181.138 35.5368C180.127 36.0004 179.007 36.2322 177.778 36.2322ZM177.327 24.1237C176.544 24.1237 175.906 24.3873 175.415 24.9145C174.932 25.4418 174.622 26.1963 174.486 27.1781H179.977V26.8644C179.959 25.9918 179.722 25.3191 179.267 24.8464C178.811 24.3646 178.165 24.1237 177.327 24.1237Z" fill="white"/>
<path d="M191.451 31.1461L194.197 21.2056H198.322L193.336 35.9595H189.566L184.58 21.2056H188.705L191.451 31.1461Z" fill="white"/>
<path d="M206.682 36.2322C204.514 36.2322 202.748 35.5686 201.382 34.2414C200.025 32.9142 199.346 31.1461 199.346 28.9371V28.5553C199.346 27.0735 199.633 25.7509 200.207 24.5873C200.781 23.4146 201.591 22.5146 202.638 21.8874C203.695 21.2511 204.897 20.9329 206.244 20.9329C208.266 20.9329 209.855 21.5692 211.012 22.8419C212.177 24.1146 212.76 25.919 212.76 28.2553V29.8643H203.349C203.476 30.8279 203.859 31.6006 204.496 32.1824C205.143 32.7642 205.958 33.0551 206.941 33.0551C208.462 33.0551 209.65 32.5051 210.506 31.4052L212.446 33.5733C211.854 34.4096 211.053 35.0641 210.042 35.5368C209.031 36.0004 207.911 36.2322 206.682 36.2322ZM206.231 24.1237C205.448 24.1237 204.81 24.3873 204.318 24.9145C203.836 25.4418 203.526 26.1963 203.39 27.1781H208.881V26.8644C208.863 25.9918 208.626 25.3191 208.171 24.8464C207.715 24.3646 207.069 24.1237 206.231 24.1237Z" fill="white"/>
<path d="M219.18 35.9595H215.219V15.015H219.18V35.9595Z" fill="white"/>
<path d="M100.846 57.5034C100.846 56.7307 100.573 56.1398 100.027 55.7307C99.4805 55.3125 98.497 54.8762 97.0764 54.4217C95.6558 53.9581 94.5312 53.5035 93.7025 53.0581C91.4441 51.84 90.3149 50.1991 90.3149 48.1356C90.3149 47.0629 90.6154 46.1084 91.2164 45.2721C91.8266 44.4266 92.6962 43.7676 93.8254 43.2949C94.9637 42.8222 96.2386 42.5858 97.6501 42.5858C99.0707 42.5858 100.337 42.8449 101.448 43.3631C102.558 43.8721 103.419 44.5948 104.029 45.5311C104.648 46.4675 104.958 47.5311 104.958 48.7219H100.86C100.86 47.8129 100.573 47.1084 99.9996 46.6084C99.4259 46.0993 98.62 45.8448 97.5818 45.8448C96.5801 45.8448 95.8015 46.0584 95.246 46.4857C94.6905 46.9038 94.4128 47.4583 94.4128 48.1492C94.4128 48.7946 94.7361 49.3355 95.3826 49.7719C96.0383 50.2082 96.999 50.6173 98.2648 50.9991C100.596 51.6991 102.294 52.5672 103.36 53.6035C104.425 54.6398 104.958 55.9307 104.958 57.4761C104.958 59.1942 104.307 60.5441 103.005 61.5259C101.702 62.4986 99.9495 62.9849 97.7457 62.9849C96.2159 62.9849 94.8226 62.7077 93.5659 62.1532C92.3092 61.5896 91.3485 60.8214 90.6837 59.8487C90.028 58.876 89.7002 57.7488 89.7002 56.467H93.8118C93.8118 58.6579 95.1231 59.7533 97.7457 59.7533C98.7201 59.7533 99.4805 59.5578 100.027 59.1669C100.573 58.7669 100.846 58.2124 100.846 57.5034Z" fill="white"/>
<path d="M116.337 61.2123C115.362 62.3941 114.014 62.9849 112.293 62.9849C110.709 62.9849 109.498 62.5304 108.66 61.6214C107.831 60.7123 107.408 59.3806 107.389 57.6261V47.9583H111.337V57.4897C111.337 59.026 112.038 59.7942 113.441 59.7942C114.779 59.7942 115.699 59.3306 116.2 58.4033V47.9583H120.161V62.7122H116.446L116.337 61.2123Z" fill="white"/>
<path d="M129.286 59.8078C130.014 59.8078 130.606 59.6078 131.062 59.2078C131.517 58.8078 131.754 58.2761 131.772 57.6124H135.474C135.465 58.6124 135.191 59.5305 134.654 60.3669C134.117 61.1941 133.379 61.8395 132.441 62.3032C131.512 62.7577 130.483 62.9849 129.354 62.9849C127.242 62.9849 125.575 62.3168 124.355 60.9805C123.135 59.6351 122.524 57.7806 122.524 55.4171V55.158C122.524 52.8854 123.13 51.0718 124.341 49.7173C125.552 48.3628 127.214 47.6856 129.327 47.6856C131.176 47.6856 132.655 48.2128 133.766 49.2673C134.886 50.3128 135.456 51.7082 135.474 53.4535H131.772C131.754 52.6899 131.517 52.0718 131.062 51.5991C130.606 51.1173 130.005 50.8764 129.259 50.8764C128.339 50.8764 127.642 51.2127 127.169 51.8854C126.704 52.549 126.472 53.6308 126.472 55.1307V55.5398C126.472 57.0579 126.704 58.1488 127.169 58.8124C127.633 59.476 128.339 59.8078 129.286 59.8078Z" fill="white"/>
<path d="M143.874 59.8078C144.603 59.8078 145.195 59.6078 145.65 59.2078C146.106 58.8078 146.342 58.2761 146.361 57.6124H150.062C150.053 58.6124 149.78 59.5305 149.243 60.3669C148.705 61.1941 147.968 61.8395 147.03 62.3032C146.101 62.7577 145.072 62.9849 143.943 62.9849C141.83 62.9849 140.164 62.3168 138.943 60.9805C137.723 59.6351 137.113 57.7806 137.113 55.4171V55.158C137.113 52.8854 137.718 51.0718 138.93 49.7173C140.141 48.3628 141.803 47.6856 143.915 47.6856C145.764 47.6856 147.244 48.2128 148.355 49.2673C149.475 50.3128 150.044 51.7082 150.062 53.4535H146.361C146.342 52.6899 146.106 52.0718 145.65 51.5991C145.195 51.1173 144.594 50.8764 143.847 50.8764C142.927 50.8764 142.231 51.2127 141.757 51.8854C141.293 52.549 141.061 53.6308 141.061 55.1307V55.5398C141.061 57.0579 141.293 58.1488 141.757 58.8124C142.222 59.476 142.927 59.8078 143.874 59.8078Z" fill="white"/>
<path d="M159.119 62.9849C156.951 62.9849 155.185 62.3213 153.819 60.9941C152.462 59.6669 151.783 57.8988 151.783 55.6898V55.308C151.783 53.8262 152.07 52.5036 152.644 51.34C153.218 50.1673 154.028 49.2673 155.075 48.6401C156.132 48.0038 157.334 47.6856 158.682 47.6856C160.703 47.6856 162.292 48.3219 163.449 49.5946C164.614 50.8673 165.197 52.6717 165.197 55.008V56.617H155.786C155.913 57.5806 156.296 58.3533 156.933 58.9351C157.58 59.5169 158.395 59.8078 159.378 59.8078C160.899 59.8078 162.087 59.2578 162.943 58.1579L164.883 60.326C164.291 61.1623 163.49 61.8168 162.479 62.2895C161.468 62.7531 160.348 62.9849 159.119 62.9849ZM158.668 50.8764C157.885 50.8764 157.247 51.14 156.756 51.6672C156.273 52.1945 155.963 52.949 155.827 53.9308H161.318V53.6172C161.3 52.7445 161.063 52.0718 160.608 51.5991C160.152 51.1173 159.506 50.8764 158.668 50.8764Z" fill="white"/>
<path d="M175.456 58.6351C175.456 58.1533 175.214 57.7761 174.732 57.5034C174.258 57.2216 173.493 56.9716 172.437 56.7534C168.922 56.0171 167.164 54.5262 167.164 52.2809C167.164 50.9718 167.706 49.881 168.79 49.0083C169.882 48.1265 171.308 47.6856 173.065 47.6856C174.941 47.6856 176.439 48.1265 177.559 49.0083C178.688 49.89 179.253 51.0355 179.253 52.4445H175.305C175.305 51.8809 175.123 51.4173 174.759 51.0536C174.395 50.6809 173.826 50.4946 173.051 50.4946C172.387 50.4946 171.872 50.6446 171.508 50.9445C171.144 51.2445 170.962 51.6263 170.962 52.09C170.962 52.5263 171.166 52.8808 171.576 53.1535C171.995 53.4172 172.696 53.649 173.68 53.849C174.663 54.0399 175.492 54.258 176.166 54.5035C178.251 55.2671 179.294 56.5898 179.294 58.4715C179.294 59.8169 178.716 60.9078 177.559 61.7441C176.403 62.5713 174.909 62.9849 173.079 62.9849C171.84 62.9849 170.738 62.7668 169.773 62.3304C168.817 61.885 168.066 61.2805 167.519 60.5169C166.973 59.7442 166.7 58.9124 166.7 58.0215H170.442C170.479 58.7215 170.738 59.2578 171.221 59.6305C171.704 60.0033 172.35 60.1896 173.161 60.1896C173.917 60.1896 174.486 60.0487 174.868 59.7669C175.26 59.476 175.456 59.0987 175.456 58.6351Z" fill="white"/>
<path d="M189.853 58.6351C189.853 58.1533 189.612 57.7761 189.129 57.5034C188.655 57.2216 187.89 56.9716 186.834 56.7534C183.319 56.0171 181.561 54.5262 181.561 52.2809C181.561 50.9718 182.103 49.881 183.187 49.0083C184.28 48.1265 185.705 47.6856 187.462 47.6856C189.338 47.6856 190.836 48.1265 191.956 49.0083C193.086 49.89 193.65 51.0355 193.65 52.4445H189.703C189.703 51.8809 189.521 51.4173 189.156 51.0536C188.792 50.6809 188.223 50.4946 187.449 50.4946C186.784 50.4946 186.27 50.6446 185.905 50.9445C185.541 51.2445 185.359 51.6263 185.359 52.09C185.359 52.5263 185.564 52.8808 185.974 53.1535C186.392 53.4172 187.094 53.649 188.077 53.849C189.061 54.0399 189.889 54.258 190.563 54.5035C192.649 55.2671 193.691 56.5898 193.691 58.4715C193.691 59.8169 193.113 60.9078 191.956 61.7441C190.8 62.5713 189.306 62.9849 187.476 62.9849C186.238 62.9849 185.136 62.7668 184.17 62.3304C183.214 61.885 182.463 61.2805 181.917 60.5169C181.37 59.7442 181.097 58.9124 181.097 58.0215H184.84C184.876 58.7215 185.136 59.2578 185.618 59.6305C186.101 60.0033 186.748 60.1896 187.558 60.1896C188.314 60.1896 188.883 60.0487 189.266 59.7669C189.657 59.476 189.853 59.0987 189.853 58.6351Z" fill="white"/>
</svg>
