<svg width="119" height="44" viewBox="0 0 119 44" fill="none" xmlns="http://www.w3.org/2000/svg">
<rect x="0.179688" y="0.857666" width="42.2847" height="42.2847" fill="white"/>
<path d="M34.3247 13.3317H25.6563V22H16.988V30.6684H8.3196" stroke="#FF4B4B" stroke-width="4.24095"/>
<path d="M58.0264 20.3517H55.8049L51.4804 13.2701V20.3517H49.2588V9.58881H51.4804L55.8123 16.6852V9.58881H58.0264V20.3517Z" fill="white"/>
<path d="M63.5136 20.4996C62.3387 20.4996 61.3809 20.1398 60.6404 19.4203C59.9049 18.7008 59.5371 17.7423 59.5371 16.5448V16.3378C59.5371 15.5345 59.6926 14.8175 60.0036 14.1867C60.3146 13.551 60.754 13.0631 61.3217 12.7231C61.8944 12.3781 62.546 12.2056 63.2766 12.2056C64.3726 12.2056 65.234 12.5506 65.861 13.2405C66.4929 13.9304 66.8089 14.9087 66.8089 16.1752V17.0475H61.7068C61.7759 17.5698 61.9832 17.9887 62.3288 18.3041C62.6793 18.6195 63.1211 18.7772 63.6543 18.7772C64.4787 18.7772 65.123 18.4791 65.587 17.8828L66.6385 19.0581C66.3176 19.5115 65.8832 19.8663 65.3352 20.1226C64.7873 20.3739 64.1801 20.4996 63.5136 20.4996ZM63.2692 13.9354C62.8447 13.9354 62.4991 14.0783 62.2325 14.3641C61.9709 14.6499 61.803 15.059 61.729 15.5912H64.7058V15.4212C64.6959 14.9481 64.5676 14.5834 64.3207 14.3272C64.0739 14.066 63.7234 13.9354 63.2692 13.9354Z" fill="white"/>
<path d="M71.0816 14.7411L72.4293 12.3535H74.7175L72.4367 16.2713L74.8137 20.3517H72.5182L71.089 17.8384L69.6672 20.3517H67.3642L69.7413 16.2713L67.4679 12.3535H69.7635L71.0816 14.7411Z" fill="white"/>
<path d="M78.3089 10.3872V12.3535H79.6789V13.9206H78.3089V17.9123C78.3089 18.208 78.3657 18.4199 78.4792 18.5481C78.5928 18.6762 78.81 18.7403 79.1309 18.7403C79.3678 18.7403 79.5777 18.723 79.7603 18.6885V20.3074C79.3407 20.4355 78.9087 20.4996 78.4644 20.4996C76.9637 20.4996 76.1985 19.7431 76.1689 18.2302V13.9206H74.9989V12.3535H76.1689V10.3872H78.3089Z" fill="white"/>
<path d="M87.0099 18.5702H91.7269V20.3517H84.7884V9.58881H87.0099V18.5702Z" fill="white"/>
<path d="M96.555 20.4996C95.3801 20.4996 94.4224 20.1398 93.6818 19.4203C92.9463 18.7008 92.5785 17.7423 92.5785 16.5448V16.3378C92.5785 15.5345 92.734 14.8175 93.045 14.1867C93.356 13.551 93.7954 13.0631 94.3631 12.7231C94.9358 12.3781 95.5874 12.2056 96.3181 12.2056C97.414 12.2056 98.2755 12.5506 98.9024 13.2405C99.5343 13.9304 99.8503 14.9087 99.8503 16.1752V17.0475H94.7482C94.8173 17.5698 95.0246 17.9887 95.3702 18.3041C95.7207 18.6195 96.1625 18.7772 96.6957 18.7772C97.5201 18.7772 98.1644 18.4791 98.6284 17.8828L99.68 19.0581C99.3591 19.5115 98.9246 19.8663 98.3767 20.1226C97.8287 20.3739 97.2215 20.4996 96.555 20.4996ZM96.3106 13.9354C95.8861 13.9354 95.5405 14.0783 95.2739 14.3641C95.0123 14.6499 94.8444 15.059 94.7704 15.5912H97.7472V15.4212C97.7374 14.9481 97.609 14.5834 97.3622 14.3272C97.1153 14.066 96.7648 13.9354 96.3106 13.9354Z" fill="white"/>
<path d="M103.967 17.7423L105.456 12.3535H107.692L104.989 20.3517H102.946L100.243 12.3535H102.479L103.967 17.7423Z" fill="white"/>
<path d="M112.224 20.4996C111.049 20.4996 110.091 20.1398 109.351 19.4203C108.615 18.7008 108.248 17.7423 108.248 16.5448V16.3378C108.248 15.5345 108.403 14.8175 108.714 14.1867C109.025 13.551 109.465 13.0631 110.032 12.7231C110.605 12.3781 111.257 12.2056 111.987 12.2056C113.083 12.2056 113.945 12.5506 114.572 13.2405C115.203 13.9304 115.519 14.9087 115.519 16.1752V17.0475H110.417C110.486 17.5698 110.694 17.9887 111.039 18.3041C111.39 18.6195 111.832 18.7772 112.365 18.7772C113.189 18.7772 113.834 18.4791 114.298 17.8828L115.349 19.0581C115.028 19.5115 114.594 19.8663 114.046 20.1226C113.498 20.3739 112.891 20.4996 112.224 20.4996ZM111.98 13.9354C111.555 13.9354 111.21 14.0783 110.943 14.3641C110.681 14.6499 110.514 15.059 110.44 15.5912H113.416V15.4212C113.406 14.9481 113.278 14.5834 113.031 14.3272C112.784 14.066 112.434 13.9354 111.98 13.9354Z" fill="white"/>
<path d="M119 20.3517H116.852V8.99744H119V20.3517Z" fill="white"/>
<path d="M54.8497 32.0309C54.8497 31.612 54.7016 31.2917 54.4054 31.0699C54.1092 30.8432 53.576 30.6067 52.8059 30.3603C52.0357 30.109 51.4261 29.8626 50.9768 29.6211C49.7525 28.9607 49.1404 28.0712 49.1404 26.9525C49.1404 26.371 49.3033 25.8536 49.6291 25.4002C49.9599 24.9419 50.4313 24.5846 51.0435 24.3283C51.6605 24.0721 52.3517 23.9439 53.1169 23.9439C53.887 23.9439 54.5732 24.0844 55.1755 24.3653C55.7778 24.6413 56.2443 25.033 56.575 25.5406C56.9107 26.0482 57.0786 26.6248 57.0786 27.2704H54.8571C54.8571 26.7776 54.7016 26.3957 54.3906 26.1246C54.0795 25.8486 53.6426 25.7106 53.0799 25.7106C52.5368 25.7106 52.1147 25.8265 51.8136 26.0581C51.5124 26.2848 51.3619 26.5854 51.3619 26.9599C51.3619 27.3098 51.5371 27.603 51.8876 27.8396C52.2431 28.0761 52.7639 28.2979 53.4501 28.5049C54.7139 28.8843 55.6346 29.355 56.2122 29.9168C56.7898 30.4786 57.0786 31.1784 57.0786 32.0161C57.0786 32.9475 56.7256 33.6794 56.0197 34.2116C55.3137 34.7389 54.3634 35.0025 53.1687 35.0025C52.3393 35.0025 51.584 34.8522 50.9028 34.5516C50.2215 34.2461 49.7007 33.8297 49.3403 33.3024C48.9849 32.775 48.8071 32.164 48.8071 31.4691H51.0361C51.0361 32.6568 51.7469 33.2506 53.1687 33.2506C53.6969 33.2506 54.1092 33.1447 54.4054 32.9327C54.7016 32.7159 54.8497 32.4153 54.8497 32.0309Z" fill="white"/>
<path d="M63.247 34.0416C62.7188 34.6822 61.9882 35.0025 61.0551 35.0025C60.1961 35.0025 59.5395 34.7561 59.0854 34.2633C58.6361 33.7705 58.4066 33.0486 58.3967 32.0974V26.8564H60.5368V32.0235C60.5368 32.8564 60.9169 33.2728 61.6771 33.2728C62.4028 33.2728 62.9014 33.0215 63.173 32.5188V26.8564H65.3204V34.8547H63.3063L63.247 34.0416Z" fill="white"/>
<path d="M70.267 33.2802C70.662 33.2802 70.9828 33.1718 71.2297 32.9549C71.4765 32.7381 71.6049 32.4498 71.6147 32.09H73.6215C73.6166 32.6321 73.4685 33.1299 73.1772 33.5833C72.8859 34.0317 72.4861 34.3816 71.9776 34.6329C71.474 34.8793 70.9162 35.0025 70.304 35.0025C69.1587 35.0025 68.2553 34.6403 67.5938 33.9159C66.9323 33.1865 66.6015 32.1812 66.6015 30.8999V30.7595C66.6015 29.5274 66.9298 28.5443 67.5864 27.81C68.243 27.0757 69.1439 26.7086 70.2892 26.7086C71.2914 26.7086 72.0936 26.9944 72.6959 27.5661C73.3031 28.1328 73.6116 28.8893 73.6215 29.8354H71.6147C71.6049 29.4215 71.4765 29.0864 71.2297 28.8301C70.9828 28.5689 70.657 28.4383 70.2522 28.4383C69.7536 28.4383 69.3759 28.6207 69.1192 28.9854C68.8675 29.3451 68.7416 29.9315 68.7416 30.7447V30.9664C68.7416 31.7894 68.8675 32.3808 69.1192 32.7406C69.371 33.1003 69.7536 33.2802 70.267 33.2802Z" fill="white"/>
<path d="M78.1756 33.2802C78.5706 33.2802 78.8915 33.1718 79.1383 32.9549C79.3851 32.7381 79.5135 32.4498 79.5234 32.09H81.5301C81.5252 32.6321 81.3771 33.1299 81.0858 33.5833C80.7946 34.0317 80.3947 34.3816 79.8862 34.6329C79.3827 34.8793 78.8248 35.0025 78.2127 35.0025C77.0673 35.0025 76.1639 34.6403 75.5024 33.9159C74.8409 33.1865 74.5101 32.1812 74.5101 30.8999V30.7595C74.5101 29.5274 74.8384 28.5443 75.495 27.81C76.1516 27.0757 77.0525 26.7086 78.1978 26.7086C79.2 26.7086 80.0022 26.9944 80.6045 27.5661C81.2117 28.1328 81.5203 28.8893 81.5301 29.8354H79.5234C79.5135 29.4215 79.3851 29.0864 79.1383 28.8301C78.8915 28.5689 78.5656 28.4383 78.1608 28.4383C77.6622 28.4383 77.2846 28.6207 77.0278 28.9854C76.7761 29.3451 76.6502 29.9315 76.6502 30.7447V30.9664C76.6502 31.7894 76.7761 32.3808 77.0278 32.7406C77.2796 33.1003 77.6622 33.2802 78.1756 33.2802Z" fill="white"/>
<path d="M86.4397 35.0025C85.2648 35.0025 84.307 34.6428 83.5665 33.9233C82.831 33.2038 82.4632 32.2453 82.4632 31.0478V30.8408C82.4632 30.0375 82.6187 29.3205 82.9297 28.6897C83.2407 28.0539 83.6801 27.5661 84.2478 27.226C84.8204 26.8811 85.4721 26.7086 86.2027 26.7086C87.2987 26.7086 88.1601 27.0535 88.7871 27.7435C89.419 28.4334 89.7349 29.4116 89.7349 30.6782V31.5504H84.6329C84.702 32.0728 84.9093 32.4917 85.2549 32.8071C85.6054 33.1225 86.0472 33.2802 86.5804 33.2802C87.4048 33.2802 88.0491 32.982 88.5131 32.3857L89.5646 33.5611C89.2437 34.0145 88.8093 34.3693 88.2613 34.6255C87.7134 34.8769 87.1061 35.0025 86.4397 35.0025ZM86.1953 28.4383C85.7708 28.4383 85.4252 28.5813 85.1586 28.8671C84.897 29.1529 84.7291 29.5619 84.6551 30.0942H87.6319V29.9242C87.622 29.4511 87.4937 29.0864 87.2468 28.8301C87 28.5689 86.6495 28.4383 86.1953 28.4383Z" fill="white"/>
<path d="M95.2962 32.6445C95.2962 32.3833 95.1653 32.1788 94.9037 32.0309C94.647 31.8781 94.2323 31.7426 93.6596 31.6243C91.7541 31.2252 90.8013 30.417 90.8013 29.1997C90.8013 28.4901 91.095 27.8987 91.6825 27.4256C92.2749 26.9476 93.0475 26.7086 94.0003 26.7086C95.0172 26.7086 95.8293 26.9476 96.4365 27.4256C97.0487 27.9036 97.3548 28.5246 97.3548 29.2884H95.2147C95.2147 28.9829 95.116 28.7316 94.9185 28.5344C94.721 28.3324 94.4125 28.2314 93.9929 28.2314C93.6325 28.2314 93.3536 28.3127 93.1561 28.4753C92.9586 28.6379 92.8599 28.8449 92.8599 29.0962C92.8599 29.3328 92.971 29.525 93.1931 29.6728C93.4202 29.8157 93.8003 29.9414 94.3335 30.0498C94.8667 30.1533 95.3159 30.2716 95.6812 30.4046C96.8117 30.8186 97.377 31.5356 97.377 32.5557C97.377 33.2851 97.0635 33.8765 96.4365 34.3299C95.8096 34.7783 94.9999 35.0025 94.0077 35.0025C93.3363 35.0025 92.7389 34.8843 92.2156 34.6477C91.6973 34.4062 91.29 34.0785 90.9938 33.6646C90.6976 33.2457 90.5495 32.7948 90.5495 32.3118H92.5785C92.5982 32.6913 92.7389 32.982 93.0006 33.1841C93.2622 33.3861 93.6127 33.4872 94.0521 33.4872C94.4618 33.4872 94.7704 33.4108 94.9777 33.258C95.19 33.1003 95.2962 32.8958 95.2962 32.6445Z" fill="white"/>
<path d="M103.101 32.6445C103.101 32.3833 102.97 32.1788 102.709 32.0309C102.452 31.8781 102.037 31.7426 101.465 31.6243C99.559 31.2252 98.6062 30.417 98.6062 29.1997C98.6062 28.4901 98.8999 27.8987 99.4874 27.4256C100.08 26.9476 100.852 26.7086 101.805 26.7086C102.822 26.7086 103.634 26.9476 104.241 27.4256C104.854 27.9036 105.16 28.5246 105.16 29.2884H103.02C103.02 28.9829 102.921 28.7316 102.723 28.5344C102.526 28.3324 102.217 28.2314 101.798 28.2314C101.437 28.2314 101.158 28.3127 100.961 28.4753C100.764 28.6379 100.665 28.8449 100.665 29.0962C100.665 29.3328 100.776 29.525 100.998 29.6728C101.225 29.8157 101.605 29.9414 102.138 30.0498C102.672 30.1533 103.121 30.2716 103.486 30.4046C104.617 30.8186 105.182 31.5356 105.182 32.5557C105.182 33.2851 104.868 33.8765 104.241 34.3299C103.615 34.7783 102.805 35.0025 101.813 35.0025C101.141 35.0025 100.544 34.8843 100.021 34.6477C99.5022 34.4062 99.095 34.0785 98.7987 33.6646C98.5025 33.2457 98.3544 32.7948 98.3544 32.3118H100.383C100.403 32.6913 100.544 32.982 100.806 33.1841C101.067 33.3861 101.418 33.4872 101.857 33.4872C102.267 33.4872 102.575 33.4108 102.783 33.258C102.995 33.1003 103.101 32.8958 103.101 32.6445Z" fill="white"/>
</svg>
